HIERARCHY
ROOT Hips
{
	OFFSET 0.00000 0.00000 0.00000
	CHANNELS 6 Xposition Yposition Zposition Zrotation Yrotation Xrotation 
	JOINT LHipJoint
	{
		OFFSET 0 0 0
		CHANNELS 3 Zrotation Yrotation Xrotation
		JOINT LeftUpLeg
		{
			OFFSET 1.53794 -1.55850 0.93568
			CHANNELS 3 Zrotation Yrotation Xrotation
			JOINT LeftLeg
			{
				OFFSET 2.28545 -6.27922 0.00000
				CHANNELS 3 Zrotation Yrotation Xrotation
				JOINT LeftFoot
				{
					OFFSET 2.37329 -6.52057 0.00000
					CHANNELS 3 Zrotation Yrotation Xrotation
					JOINT LeftToeBase
					{
						OFFSET 0.14846 -0.40788 2.09160
						CHANNELS 3 Zrotation Yrotation Xrotation
						End Site
						{
							OFFSET 0.00000 -0.00000 1.07536
						}
					}
				}
			}
		}
	}
	JOINT RHipJoint
	{
		OFFSET 0 0 0
		CHANNELS 3 Zrotation Yrotation Xrotation
		JOINT RightUpLeg
		{
			OFFSET -1.78290 -1.55850 0.93568
			CHANNELS 3 Zrotation Yrotation Xrotation
			JOINT RightLeg
			{
				OFFSET -2.24144 -6.15831 0.00000
				CHANNELS 3 Zrotation Yrotation Xrotation
				JOINT RightFoot
				{
					OFFSET -2.35091 -6.45907 0.00000
					CHANNELS 3 Zrotation Yrotation Xrotation
					JOINT RightToeBase
					{
						OFFSET -0.14428 -0.39641 2.07944
						CHANNELS 3 Zrotation Yrotation Xrotation
						End Site
						{
							OFFSET -0.00000 -0.00000 1.06864
						}
					}
				}
			}
		}
	}
	JOINT LowerBack
	{
		OFFSET 0 0 0
		CHANNELS 3 Zrotation Yrotation Xrotation
		JOINT Spine
		{
			OFFSET -0.08841 2.11430 -0.15818
			CHANNELS 3 Zrotation Yrotation Xrotation
			JOINT Spine1
			{
				OFFSET -0.00033 2.12605 -0.08097
				CHANNELS 3 Zrotation Yrotation Xrotation
				JOINT Neck
				{
					OFFSET 0 0 0
					CHANNELS 3 Zrotation Yrotation Xrotation
					JOINT Neck1
					{
						OFFSET 0.04431 1.59447 0.43193
						CHANNELS 3 Zrotation Yrotation Xrotation
						JOINT Head
						{
							OFFSET 0.00455 1.62017 -0.58852
							CHANNELS 3 Zrotation Yrotation Xrotation
							End Site
							{
								OFFSET -0.00920 1.72955 -0.25850
							}
						}
					}
				}
				JOINT LeftShoulder
				{
					OFFSET 0 0 0
					CHANNELS 3 Zrotation Yrotation Xrotation
					JOINT LeftArm
					{
						OFFSET 2.86490 1.49927 -0.33774
						CHANNELS 3 Zrotation Yrotation Xrotation
						JOINT LeftForeArm
						{
							OFFSET 4.87408 -0.00000 0.00000
							CHANNELS 3 Zrotation Yrotation Xrotation
							JOINT LeftHand
							{
								OFFSET 2.76729 -0.00000 0.00000
								CHANNELS 3 Zrotation Yrotation Xrotation
								JOINT LeftFingerBase
								{
									OFFSET 0 0 0
									CHANNELS 3 Zrotation Yrotation Xrotation
									JOINT LeftHandIndex1
									{
										OFFSET 0.98922 -0.00000 0.00000
										CHANNELS 3 Zrotation Yrotation Xrotation
										End Site
										{
											OFFSET 0.79753 -0.00000 0.00000
										}
									}
								}
								JOINT LThumb
								{
									OFFSET 0 0 0
									CHANNELS 3 Zrotation Yrotation Xrotation
									End Site
									{
										OFFSET 0.80972 -0.00000 0.80972
									}
								}
							}
						}
					}
				}
				JOINT RightShoulder
				{
					OFFSET 0 0 0
					CHANNELS 3 Zrotation Yrotation Xrotation
					JOINT RightArm
					{
						OFFSET -2.94414 1.45463 -0.25291
						CHANNELS 3 Zrotation Yrotation Xrotation
						JOINT RightForeArm
						{
							OFFSET -4.71404 -0.00000 0.00000
							CHANNELS 3 Zrotation Yrotation Xrotation
							JOINT RightHand
							{
								OFFSET -2.83468 -0.00000 0.00000
								CHANNELS 3 Zrotation Yrotation Xrotation
								JOINT RightFingerBase
								{
									OFFSET 0 0 0
									CHANNELS 3 Zrotation Yrotation Xrotation
									JOINT RightHandIndex1
									{
										OFFSET -0.86820 -0.00000 0.00000
										CHANNELS 3 Zrotation Yrotation Xrotation
										End Site
										{
											OFFSET -0.69996 -0.00000 0.00000
										}
									}
								}
								JOINT RThumb
								{
									OFFSET 0 0 0
									CHANNELS 3 Zrotation Yrotation Xrotation
									End Site
									{
										OFFSET -0.71065 -0.00000 0.71065
									}
								}
							}
						}
					}
				}
			}
		}
	}
}
MOTION
Frames: 12
Frame Time: 0.105263
0.00 0.00 0.00 0 0 0 0 0 0 -21 0 0 0 0 0 0 0 0 0 0 0 0 0 0 21 0 0 0 0 0 0 0 0 0 0 0 0 0 0 0 0 0 0 0 0 0 0 -16 0 0 21 0 0 11 0 0 0 -8 0 0 0 0 0 0 0 0 0 0 0 0 0 0 0 0 0 0 0 0 8 0 0 0 0 0 0 0 0 0 0 0 0 0 0 0 0 0
0.00 0.00 0.00 178.2540 -2.7844 -170.0430 0.0000 0.0000 0.0000 -13.6791 -19.6630 -35.0760 2.1321 9.1361 26.2219 0.4704 11.8191 13.7881 0.1187 -2.2216 -6.1184 0.0000 0.0000 0.0000 27.3100 0.1947 6.1425 -4.5639 -12.8752 38.9031 -0.2264 -25.9203 19.7162 -0.5567 4.7793 -13.2800 -2.8285 4.1758 -7.6150 -1.2358 5.9081 1.8112 1.0289 2.8209 6.0009 -3.5584 -2.9924 -31.9475 3.6320 -9.5551 43.9877 -0.7154 -4.4752 27.1550 0.0000 -0.0000 0.0000 -67.9187 36.5195 53.6245 109.7587 -58.4722 -77.0238 -0.0000 -0.0000 15.8826 15.8191 7.1923 2.0316 -7.1250 0.0000 -0.0000 -9.3214 37.3059 1.7837 0.0000 -0.0000 0.0000 75.5581 -12.1532 49.0218 -99.6113 59.6480 -68.3138 0.0000 0.0000 7.3663 -13.4645 -2.6738 0.6399 7.1250 -0.0000 -0.0000 10.6002 -32.6014 3.2671
0.00 0.00 0.00 177.0590 -4.2740 -172.7460 0.0000 0.0000 0.0000 -18.5960 -15.5705 -30.3551 3.2748 11.1271 32.7097 -0.1751 11.0856 4.7612 0.1421 -2.4293 -6.6937 0.0000 0.0000 0.0000 25.2851 -2.5710 -0.2876 -9.4447 -17.0855 57.6155 0.8446 -26.2304 12.7217 -0.5493 4.7479 -13.1910 -3.8193 2.4324 -4.2858 -1.0492 3.4947 3.0269 1.3501 1.5775 5.3835 -3.7196 -2.0613 -35.2249 3.2188 -7.2369 44.1831 -0.2503 -3.6794 28.8238 0.0000 -0.0000 0.0000 -72.0133 32.2284 50.1617 106.5373 -58.9410 -74.2708 -0.0000 -0.0000 17.1732 16.8661 6.5157 1.9704 -7.1250 0.0000 -0.0000 -8.3429 36.6739 1.7232 0.0000 -0.0000 0.0000 75.8444 -14.7713 47.0031 -85.5183 59.9240 -56.1197 0.0000 0.0000 9.7181 -13.8255 -4.8513 1.1923 7.1250 -0.0000 -0.0000 10.6120 -34.8163 2.6919
0.00 0.00 0.00 173.8860 -6.3211 -174.8310 0.0000 0.0000 0.0000 -23.9729 -14.5673 -24.2240 4.7608 13.1093 39.7790 -0.9201 16.7218 -7.3599 0.0418 -1.3198 -3.6293 0.0000 0.0000 0.0000 20.5050 -4.0025 -9.5179 -15.4258 -19.4908 76.5160 1.2804 -23.8872 5.9080 -0.5531 4.7640 -13.2368 -6.6360 1.0095 0.1901 -1.7493 1.3049 4.0695 1.9358 0.3494 3.9967 -3.3680 -1.5249 -38.4037 3.2839 -5.9910 43.8347 0.1642 -3.0572 29.9137 -0.0000 -0.0000 0.0000 -74.3829 23.7174 49.4455 98.9289 -59.6966 -67.7247 -0.0000 -0.0000 17.3903 18.0033 6.6583 2.1580 -7.1250 0.0000 -0.0000 -7.4102 36.8883 1.4887 -0.0000 -0.0000 0.0000 79.0205 -17.9622 40.5036 -64.5778 57.4113 -38.1751 0.0000 0.0000 11.9809 -15.6023 -7.6937 2.1410 7.1250 -0.0000 -0.0000 9.5850 -37.8044 1.7168
0.00 0.00 0.00 169.7510 -8.3556 -171.7410 0.0000 0.0000 0.0000 -26.9396 -6.4175 0.8394 2.5762 9.9752 28.8965 -0.6219 14.6696 -0.1238 0.7431 -5.5066 -15.3593 0.0000 0.0000 0.0000 8.9990 12.8562 -49.1811 -15.7195 -19.5549 77.3949 1.4585 -20.7877 -8.3277 -0.9087 6.0743 -17.0002 -8.6597 -3.5270 1.3011 -1.7074 -4.9591 5.4763 2.8162 -3.0048 5.5718 0.2869 -2.1665 -43.2573 1.6241 -1.9095 43.1192 0.8190 0.4690 30.7397 0.0000 -0.0000 0.0000 -79.9163 -5.5416 52.5909 101.5966 -59.4857 -70.0256 -0.0000 -0.0000 18.9215 17.5012 6.6412 2.0885 -7.1250 0.0000 -0.0000 -7.8290 36.8409 1.5832 0.0000 -0.0000 0.0000 86.3711 -34.0042 18.2586 -30.3709 41.2092 -11.6532 0.0000 0.0000 12.7649 -12.7284 -7.8233 1.7611 7.1250 -0.0000 -0.0000 12.0235 -37.7444 2.1855
0.00 0.00 0.00 168.8510 -7.9826 -170.0990 0.0000 0.0000 0.0000 -25.6841 -2.4196 7.5457 1.0296 6.4544 18.1087 0.9885 7.8980 17.7978 0.4832 -4.4575 -12.3676 0.0000 0.0000 0.0000 6.4428 15.6848 -49.6728 -9.1784 -16.9212 56.7050 1.5811 -22.0621 -3.4830 -0.9890 6.3295 -17.7436 -8.3036 -4.9290 -0.3757 -1.6048 -6.6527 5.4655 2.4467 -3.8404 6.6951 0.8753 -1.2957 -45.2046 0.9190 -0.8853 44.3003 0.5646 0.7031 30.0166 -0.0000 0.0000 0.0000 -78.1299 -7.1143 53.1077 106.6102 -58.9314 -74.3332 -0.0000 -0.0000 19.2175 17.8664 6.0380 1.9420 -7.1250 0.0000 -0.0000 -7.4436 36.2353 1.6151 -0.0000 0.0000 0.0000 88.4221 -36.3231 13.6576 -31.1028 41.8201 -12.1384 0.0000 0.0000 11.8908 -11.7737 -5.9393 1.2355 7.1250 -0.0000 -0.0000 12.4683 -35.8059 2.8732
0.00 0.00 0.00 168.0420 -7.2775 -168.8890 0.0000 0.0000 0.0000 -24.8712 0.4277 11.8218 0.3749 3.9324 10.8865 3.6707 7.8926 34.8823 0.0218 -0.9532 -2.6200 0.0000 0.0000 0.0000 5.4026 16.7193 -47.5435 -4.9097 -13.2814 40.4311 1.5496 -23.3279 1.2618 -1.0084 6.3895 -17.9187 -7.4871 -5.7125 -2.3573 -1.6688 -7.5194 5.4595 1.6326 -4.2214 7.8079 1.2475 -0.8131 -46.6774 0.0348 -0.1091 44.2978 0.1387 0.8241 30.5227 0.0000 -0.0000 0.0000 -76.4960 -7.3083 53.5868 107.7808 -58.7710 -75.3351 -0.0000 -0.0000 19.9276 17.5944 5.5426 1.7543 -7.1250 0.0000 -0.0000 -7.6068 35.7062 1.7500 0.0000 -0.0000 0.0000 89.9086 -36.7728 9.9111 -31.5373 42.1752 -12.4291 0.0000 0.0000 12.1820 -10.9724 -5.1896 1.0047 7.1250 -0.0000 -0.0000 12.9907 -35.0196 3.2537
0.00 0.00 0.00 165.2500 -3.7007 -169.3110 0.0000 0.0000 0.0000 -27.0829 -1.5779 10.7246 1.6595 8.1177 23.0720 5.4699 6.7855 43.2735 0.3445 3.7715 10.4346 0.0000 0.0000 0.0000 10.5649 12.1510 -42.2572 -2.8236 -10.4038 30.2945 2.4245 -29.1559 2.5304 -0.4626 4.3626 -12.0991 -8.3669 -6.1663 -4.5755 -1.9284 -7.7778 2.7977 1.7652 -4.2096 6.3400 0.8483 -1.1889 -37.7107 -1.6279 1.5354 43.2056 -0.2444 1.2747 27.9620 0.0000 0.0000 0.0000 -76.3573 2.0291 55.3686 105.0410 -59.1277 -72.9877 -0.0000 -0.0000 20.9316 15.8405 4.2712 1.2106 -7.1250 0.0000 -0.0000 -8.8882 34.3133 2.3547 0.0000 0.0000 0.0000 87.1208 -40.7943 11.5803 -32.7413 43.1303 -13.2449 0.0000 0.0000 11.3444 -10.0632 -4.3745 0.7755 7.1250 -0.0000 -0.0000 13.5842 -34.1710 3.6973
0.00 0.00 0.00 165.7490 0.2592 -171.1590 0.0000 0.0000 0.0000 -26.3280 -0.8368 4.2130 4.8476 13.2101 40.1602 3.9424 10.8152 36.0453 0.2197 3.0171 8.3263 0.0000 0.0000 0.0000 17.0056 8.7081 -38.7650 -4.1277 -12.3284 36.9039 1.2473 -19.7061 -3.1693 -0.1916 2.8186 -7.7742 -8.1213 -5.0616 -3.3918 -1.7805 -6.5011 0.6035 2.2263 -3.4201 3.2111 1.3841 -1.5728 -32.0372 -2.6941 1.6649 43.2696 -0.8786 1.4830 25.4874 0.0000 0.0000 0.0000 -77.2312 10.5920 55.5151 101.9055 -59.4576 -70.2917 -0.0000 -0.0000 22.4996 16.1084 4.2710 1.2321 -7.1250 0.0000 -0.0000 -8.6696 34.3242 2.2933 0.0000 0.0000 0.0000 83.1821 -41.8306 17.3219 -32.7158 43.1104 -13.2274 0.0000 0.0000 13.5815 -11.1961 -2.7992 0.5538 7.1250 -0.0000 -0.0000 12.4254 -32.6539 3.8353
0.00 0.00 0.00 168.0970 5.3831 -173.2100 0.0000 0.0000 0.0000 -23.2840 -0.2021 -4.0592 10.0510 17.4384 59.6587 2.6639 14.2582 29.6301 0.1758 2.7007 7.4466 0.0000 0.0000 0.0000 22.2251 9.5008 -33.0135 -5.8034 -14.2351 44.1874 0.3055 -14.1092 -16.0513 -0.2280 3.0738 -8.4842 -5.5565 -3.2861 -1.3414 -1.2812 -4.1646 1.0831 1.6398 -2.1167 2.1716 1.0295 -1.7247 -33.2051 -2.3744 0.8006 42.1484 -0.9410 0.9947 24.7493 0.0000 0.0000 0.0000 -78.4214 14.0162 53.4852 94.8545 -59.9108 -64.2028 -0.0000 -0.0000 22.4378 16.5525 4.6803 1.3892 -7.1250 0.0000 -0.0000 -8.3577 34.7647 2.1190 0.0000 0.0000 0.0000 80.8695 -34.1799 22.4829 -33.4231 43.6527 -13.7132 0.0000 0.0000 12.6426 -12.2282 -4.0016 0.8665 7.1250 -0.0000 -0.0000 11.7797 -33.8923 3.2680
0.00 0.00 0.00 171.1930 10.7097 -174.2410 0.0000 0.0000 0.0000 -18.9850 -2.2605 -15.0062 16.5651 19.7147 79.9111 1.5781 15.2441 23.4051 0.1380 2.3939 6.5956 0.0000 0.0000 0.0000 28.0483 10.1035 -25.9453 -6.6396 -15.0207 47.4975 -0.5459 -12.6766 -23.7033 -0.2983 3.5116 -9.7064 -2.2079 -1.6715 1.1493 -0.5892 -2.1824 1.7666 0.6328 -1.0937 1.2265 0.7136 -1.6338 -34.3342 -1.7978 0.1614 40.6472 -0.8012 0.6021 23.7226 0.0000 0.0000 0.0000 -79.0363 17.6692 50.0838 87.3806 -59.9741 -57.7317 -0.0000 -0.0000 19.7613 16.3304 8.3975 2.4501 -7.1250 0.0000 -0.0000 -9.0859 38.5752 1.4520 0.0000 0.0000 0.0000 78.9613 -22.5992 28.7740 -35.5545 45.2041 -15.2055 0.0000 0.0000 14.2509 -14.3382 -4.7973 1.2246 7.1250 -0.0000 -0.0000 10.1854 -34.7851 2.5886
0.00 0.00 0.00 172.3890 25.6207 -171.0240 0.0000 0.0000 0.0000 -11.3651 -16.8932 -45.8424 20.1376 19.9995 90.4024 -0.4126 20.9807 11.2694 0.0847 1.8776 5.1676 0.0000 0.0000 0.0000 29.8650 8.9341 -2.4781 -3.1904 -10.9971 32.2702 -0.0397 -6.0444 -9.6343 -2.1134 9.0984 -26.1035 -0.5405 3.9180 0.9954 -2.3619 5.2586 0.4948 -2.1561 2.6503 0.1246 -0.7543 -4.4806 -34.9556 0.8954 -4.8990 41.1827 -0.5238 -0.9404 24.5238 0.0000 0.0000 0.0000 -69.6605 29.1358 51.4484 96.3235 -59.8484 -65.4735 -0.0000 -0.0000 19.2148 15.4247 6.9267 1.9058 -7.1250 0.0000 -0.0000 -9.6097 37.0101 1.9105 0.0000 0.0000 0.0000 76.2323 -6.3796 46.5474 -71.8223 58.7139 -44.3257 0.0000 0.0000 10.7854 -15.1358 -4.7789 1.2909 7.1250 -0.0000 -0.0000 9.5308 -34.8025 2.4141
